<svg width="16" height="16" viewBox="0 0 16 16" fill="none" xmlns="http://www.w3.org/2000/svg">
  <rect x="5.5" y="2.5" width="8" height="10" rx="1" stroke="#666666" stroke-width="1.2" fill="none"/>
  <path d="M3.5 4.5C3.5 3.94772 3.94772 3.5 4.5 3.5H5V5H4.5C4.22386 5 4 5.22386 4 5.5V12.5C4 12.7761 4.22386 13 4.5 13H10.5C10.7761 13 11 12.7761 11 12.5V12H12.5V12.5C12.5 13.3284 11.8284 14 11 14H4C3.17157 14 2.5 13.3284 2.5 12.5V5C2.5 4.17157 3.17157 3.5 4 3.5H4.5" stroke="#666666" stroke-width="1.2" fill="none"/>
</svg>
