<svg width="16" height="16" viewBox="0 0 16 16" fill="none" xmlns="http://www.w3.org/2000/svg">
  <path d="M8 5C6.34315 5 5 6.34315 5 8C5 9.65685 6.34315 11 8 11C9.65685 11 11 9.65685 11 8C11 6.34315 9.65685 5 8 5Z" stroke="#666666" stroke-width="1.2" fill="none"/>
  <path d="M6.5 1.5L7.5 1.5C7.77614 1.5 8 1.72386 8 2L8 2.5C8 2.77614 8.22386 3 8.5 3C8.77614 3 9 2.77614 9 2.5L9 2C9 1.72386 9.22386 1.5 9.5 1.5L9.5 1.5C9.77614 1.5 10 1.72386 10 2L10 3.17071C10 3.30325 10.0527 3.43079 10.1464 3.52447L11.1213 4.49937C11.2071 4.58515 11.3219 4.63397 11.4413 4.63397C11.5607 4.63397 11.6755 4.58515 11.7612 4.49937L12.2426 4.01802C12.4379 3.82276 12.7545 3.82276 12.9497 4.01802L13.982 5.05025C14.1772 5.24551 14.1772 5.56209 13.982 5.75736L13.5007 6.23871C13.4149 6.32449 13.3661 6.43934 13.3661 6.55873C13.3661 6.67811 13.4149 6.79297 13.5007 6.87875L14.4756 7.85364C14.5693 7.94732 14.622 8.07486 14.622 8.20741L14.622 8.79259C14.622 8.92514 14.5693 9.05268 14.4756 9.14636L13.5007 10.1213C13.4149 10.207 13.3661 10.3219 13.3661 10.4413C13.3661 10.5607 13.4149 10.6755 13.5007 10.7613L13.982 11.2426C14.1772 11.4379 14.1772 11.7545 13.982 11.9497L12.9497 12.982C12.7545 13.1772 12.4379 13.1772 12.2426 12.982L11.7612 12.5006C11.6755 12.4149 11.5607 12.366 11.4413 12.366C11.3219 12.366 11.2071 12.4149 11.1213 12.5006L10.1464 13.4755C10.0527 13.5692 10 13.6968 10 13.8293V15C10 15.2761 9.77614 15.5 9.5 15.5C9.22386 15.5 9 15.2761 9 15V14.5C9 14.2239 8.77614 14 8.5 14C8.22386 14 8 14.2239 8 14.5V15C8 15.2761 7.77614 15.5 7.5 15.5H6.5C6.22386 15.5 6 15.2761 6 15V13.8293C6 13.6968 5.94732 13.5692 5.85355 13.4755L4.87868 12.5006C4.79289 12.4149 4.67804 12.366 4.55866 12.366C4.43928 12.366 4.32442 12.4149 4.23864 12.5006L3.75736 12.982C3.56209 13.1772 3.24551 13.1772 3.05025 12.982L2.01802 11.9497C1.82276 11.7545 1.82276 11.4379 2.01802 11.2426L2.49937 10.7613C2.58515 10.6755 2.63397 10.5607 2.63397 10.4413C2.63397 10.3219 2.58515 10.207 2.49937 10.1213L1.52447 9.14636C1.43079 9.05268 1.37806 8.92514 1.37806 8.79259V8.20741C1.37806 8.07486 1.43079 7.94732 1.52447 7.85364L2.49937 6.87875C2.58515 6.79297 2.63397 6.67811 2.63397 6.55873C2.63397 6.43934 2.58515 6.32449 2.49937 6.23871L2.01802 5.75736C1.82276 5.56209 1.82276 5.24551 2.01802 5.05025L3.05025 4.01802C3.24551 3.82276 3.56209 3.82276 3.75736 4.01802L4.23864 4.49937C4.32442 4.58515 4.43928 4.63397 4.55866 4.63397C4.67804 4.63397 4.79289 4.58515 4.87868 4.49937L5.85355 3.52447C5.94732 3.43079 6 3.30325 6 3.17071V2C6 1.72386 6.22386 1.5 6.5 1.5Z" stroke="#666666" stroke-width="1.2" fill="none"/>
</svg>
